<svg xmlns="http://www.w3.org/2000/svg" width="217.203" height="111.308" viewBox="0 0 217.203 111.308">
  <g id="icon-grass-4" transform="translate(-59.132 -3787.837)">
    <path id="icon-grass-1" d="M89.079,98.506c3.647-17.8,13.66-29.973,31.441-35.7-9.963,14.794-13.2,31.2-13.445,48.5H13.316C13.064,94.09,9.855,77.631,0,63.018c15.268,4.189,28.766,16.774,31.765,38.5a198.693,198.693,0,0,0-5.59-37.253A245.91,245.91,0,0,0,14.346,28.276c1.9,1.277,3.858,2.466,5.674,3.847,9.384,7.13,15.867,16.465,20.592,27.15a114.874,114.874,0,0,1,8.463,29.575c.792,5.28,1.309,10.6,1.814,15.935.027-.243.073-.487.076-.73a204.2,204.2,0,0,1,2.849-31.11c2.651-15.721,6.893-30.96,14.193-45.223A89.475,89.475,0,0,1,88.5.711c.2-.179.413-.355.83-.711C77.53,32.172,71.54,65.208,70.141,99.125c.542-3.9.975-7.818,1.646-11.7C74.22,73.381,78.4,59.945,86.194,47.849a58.267,58.267,0,0,1,19.261-18.962c.295-.176.6-.336,1.108-.62A218.136,218.136,0,0,0,89.079,98.506" transform="translate(59.132 3787.837)" fill="#010101"/>
    <path id="icon-grass-2" d="M60.247,66.622c2.467-12.036,9.239-20.271,21.265-24.142-6.738,10.005-8.929,21.1-9.093,32.8H9.006C8.835,63.636,6.665,52.5,0,42.621c10.327,2.833,19.455,11.345,21.483,26.04a134.382,134.382,0,0,0-3.781-25.2,166.316,166.316,0,0,0-8-24.342c1.282.864,2.609,1.668,3.838,2.6,6.347,4.822,10.731,11.136,13.927,18.363a77.693,77.693,0,0,1,5.724,20c.536,3.571.885,7.171,1.227,10.778.018-.165.049-.329.052-.494A138.109,138.109,0,0,1,36.4,49.334C38.189,38.7,41.058,28.395,46,18.748A60.515,60.515,0,0,1,59.857.481C60,.36,60.137.241,60.418,0a219.258,219.258,0,0,0-12.98,67.041c.367-2.637.659-5.288,1.113-7.91,1.645-9.5,4.474-18.589,9.743-26.77A39.407,39.407,0,0,1,71.322,19.537c.2-.119.4-.227.75-.419a147.532,147.532,0,0,0-11.825,47.5" transform="translate(194.823 3823.864)" fill="#010101"/>
  </g>
</svg>
