<svg xmlns="http://www.w3.org/2000/svg" width="176.82" height="163.304" viewBox="0 0 176.82 163.304">
  <path id="icon-grass-3" d="M130.691,144.521c5.351-26.109,20.041-43.974,46.129-52.371-14.617,21.7-19.369,45.773-19.726,71.153H19.536C19.166,138.043,14.458,113.9,0,92.456c22.4,6.146,42.2,24.61,46.6,56.488a291.51,291.51,0,0,0-8.2-54.655,360.784,360.784,0,0,0-17.354-52.8c2.78,1.874,5.66,3.619,8.325,5.643C43.141,57.589,52.652,71.284,59.584,86.961A168.536,168.536,0,0,1,72,130.352c1.162,7.747,1.921,15.555,2.661,23.379.039-.357.107-.714.112-1.071a299.6,299.6,0,0,1,4.18-45.643C82.842,83.952,89.066,61.6,99.776,40.67c7.668-14.981,17.344-28.468,30.07-39.626.3-.263.606-.52,1.217-1.044-17.316,47.2-26.1,95.668-28.156,145.43.8-5.721,1.43-11.47,2.415-17.159,3.569-20.611,9.706-40.324,21.136-58.07a85.485,85.485,0,0,1,28.259-27.819c.433-.258.878-.492,1.626-.91-14.209,33.156-23,67.337-25.652,103.049" fill="#010101"/>
</svg>
